<svg width="42" height="42" viewBox="0 0 42 42" fill="none" xmlns="http://www.w3.org/2000/svg">
<path fill-rule="evenodd" clip-rule="evenodd" d="M23.1125 27.0078C23.4368 27.1236 24.222 27.4039 27.1801 28.4181C28.0666 28.7052 31.8831 30.0458 36.205 27.1509C37.2559 26.4469 38.2014 25.4233 38.8646 24.4903C39.6176 23.4309 40.2496 22.1648 40.6684 20.7407C41.5145 17.8635 41.2571 15.0671 40.6967 13.4377C39.6624 10.43 37.2233 7.76839 34.0944 6.34672C30.6331 4.77401 27.9809 5.40218 27.4606 5.52538C23.8123 6.38952 21.1546 8.85054 19.8179 11.7365C18.9973 13.5993 18.9793 13.5896 18.1564 15.4516C18.0234 15.7758 17.5127 17.0213 16.6019 19.5477C17.946 20.1084 19.2903 20.669 20.6345 21.2297C20.7858 20.8046 21.9297 17.5907 22.5845 15.9378C23.0514 14.7538 23.6703 13.2864 23.7671 13.0568C24.5915 11.1023 26.1424 9.75181 27.7275 9.07096C27.9944 8.95634 30.2588 7.82539 33.387 9.32344C36.0329 10.5906 37.5123 12.9184 37.9041 14.3124C38.0434 14.8081 38.6107 16.8469 37.8437 19.3929C36.6362 23.4009 32.7597 26.2162 28.6994 24.584C27.6094 24.154 24.9887 23.0475 24.667 22.9117L24.3325 23.8392L23.1125 27.0078Z" fill="url(#paint0_linear_41_65005)"/>
<path fill-rule="evenodd" clip-rule="evenodd" d="M12.5681 17.8795C8.49879 16.2415 4.76036 18.7422 3.58577 22.7242C2.77303 25.4796 3.51146 27.7306 3.64059 28.1387C3.70015 28.327 4.17293 29.5125 5.13106 30.615C5.40921 30.9351 6.36786 32.0355 7.99545 32.83C11.0994 34.3453 13.3872 33.2561 13.6142 33.1636C14.9532 32.618 16.6144 31.4432 17.5023 29.377C18.9525 26.0029 19.8053 23.5535 20.6339 21.2316C19.2897 20.6709 17.9454 20.1103 16.6013 19.5496C15.8448 21.6987 15.8598 21.7028 15.0975 23.8506C14.2475 26.3504 13.7326 27.6502 13.6034 27.9766C12.895 29.8176 10.8159 30.8239 8.74462 29.7861C7.54267 29.1839 7.03734 28.2707 6.97732 28.1664C6.33195 27.0456 6.16437 25.6379 6.54692 24.3736C7.20164 22.2098 9.25779 21.1099 11.1488 22.0754C11.4645 22.2178 14.4016 23.5427 15.0975 23.8506C15.86 21.7024 15.8448 21.6986 16.6013 19.5496C16.2796 19.4138 13.7749 18.3562 12.5681 17.8795Z" fill="url(#paint1_linear_41_65005)"/>
<path fill-rule="evenodd" clip-rule="evenodd" d="M18.1561 15.4535C17.8315 15.3376 17.8293 15.3454 14.0881 14.0308C13.1178 13.7083 9.30752 12.4074 5.16393 15.0704C4.16702 15.7111 3.25492 16.666 2.59261 17.5974C1.86201 18.6248 1.25263 19.8651 0.848877 21.2664C0.0175763 24.1517 0.295413 26.9517 0.829325 28.5584C1.83685 31.5904 4.22225 34.2489 7.37218 35.6732C8.9491 36.3862 10.2946 36.5802 10.8031 36.644C12.5695 36.8655 13.8592 36.5334 14.1799 36.4538C17.8958 35.531 20.2919 33.1361 21.4683 30.6352C21.6013 30.3458 22.6988 27.9572 23.1123 27.0097L24.3322 23.8411L24.6668 22.9136C23.3226 22.3529 21.9784 21.7922 20.6342 21.2316C19.6438 24.0072 18.8981 26.1303 17.5027 29.377C16.6148 31.4429 14.954 32.6178 13.6146 33.1635C13.3884 33.2557 11.1003 34.3456 7.99582 32.83C5.3083 31.5179 3.91214 29.1501 3.54819 27.8309C3.41677 27.3546 2.83659 25.2654 3.58615 22.7242C4.76074 18.7422 8.49914 16.2416 12.5685 17.8795C13.7753 18.3562 16.2799 19.4138 16.6016 19.5496C17.5125 17.0232 18.0232 15.7778 18.1561 15.4535Z" fill="url(#paint2_linear_41_65005)"/>
<path fill-rule="evenodd" clip-rule="evenodd" d="M24.6667 22.9116C23.3225 22.351 21.9783 21.7903 20.6341 21.2297C20.7854 20.8046 21.9293 17.5907 22.5841 15.9378C23.051 14.7537 23.6699 13.2864 23.7668 13.0568C24.5911 11.1023 26.1421 9.75179 27.7271 9.07094C27.994 8.95632 30.2584 7.82537 33.3866 9.32343C36.0326 10.5905 37.512 12.9184 37.9038 14.3124C38.0431 14.808 38.6104 16.8469 37.8433 19.3929C36.6358 23.4009 32.7594 26.2162 28.6991 24.584C27.609 24.154 24.9883 23.0475 24.6667 22.9116C25.4231 20.7625 25.4081 20.7584 26.1704 18.6107C26.8258 18.9006 27.4794 19.1947 28.1344 19.4856C28.7945 19.7788 29.4524 20.0772 30.1157 20.3632C32.0199 21.2968 34.1186 20.0702 34.7897 17.8803C35.17 16.6392 35.038 15.2461 34.3653 14.1136C34.0031 13.5037 33.3736 12.904 32.5561 12.5191C30.4417 11.5236 28.3773 12.63 27.6646 14.4846C27.5355 14.811 27.0158 16.1244 26.1704 18.6107C25.408 20.7588 25.4231 20.7626 24.6667 22.9116Z" fill="url(#paint3_linear_41_65005)"/>
<defs>
<linearGradient id="paint0_linear_41_65005" x1="20.6918" y1="21.3696" x2="29.3637" y2="24.8409" gradientUnits="userSpaceOnUse">
<stop stop-color="#70A6FD"/>
<stop offset="1" stop-color="#0041B8"/>
</linearGradient>
<linearGradient id="paint1_linear_41_65005" x1="15.4833" y1="34.6131" x2="20.7645" y2="20.9781" gradientUnits="userSpaceOnUse">
<stop stop-color="#324196"/>
<stop offset="1" stop-color="#70A6FD"/>
</linearGradient>
<linearGradient id="paint2_linear_41_65005" x1="20.7571" y1="20.9751" x2="14.2784" y2="18.4757" gradientUnits="userSpaceOnUse">
<stop stop-color="#491AE6"/>
<stop offset="1" stop-color="#2C7CF9"/>
</linearGradient>
<linearGradient id="paint3_linear_41_65005" x1="23.3961" y1="21.9931" x2="33.4958" y2="26.6279" gradientUnits="userSpaceOnUse">
<stop stop-color="#491AE6"/>
<stop offset="1" stop-color="#2C7CF9"/>
</linearGradient>
</defs>
</svg>
